<mxfile host="drawio-plugin" modified="2022-04-08T13:50:17.703Z" agent="5.0 (Windows NT 6.2; Win64; x64) AppleWebKit/537.36 (KHTML, like Gecko) Chrome/89.0.4389.114 Safari/537.36" version="15.5.4" etag="UZbvcao9cTYj_lgVktdp" type="embed"><diagram id="LvUMi53tBqGRx74gqG9v" name="Page-1"><mxGraphModel dx="600" dy="1526" grid="1" gridSize="10" guides="1" tooltips="1" connect="1" arrows="1" fold="1" page="1" pageScale="1" pageWidth="850" pageHeight="1100" math="0" shadow="0"><root><mxCell id="0"/><mxCell id="1" parent="0"/><mxCell id="2" value="&lt;span style=&quot;font-weight: 700&quot;&gt;&amp;lt;&amp;lt;device&amp;gt;&amp;gt;&lt;/span&gt;&lt;br style=&quot;font-weight: 700&quot;&gt;&lt;b&gt;Server&lt;/b&gt;" style="verticalAlign=top;align=center;shape=cube;size=10;direction=south;fontStyle=0;html=1;boundedLbl=1;spacingLeft=5;" vertex="1" parent="1"><mxGeometry x="440" y="-140" width="310" height="520" as="geometry"/></mxCell><mxCell id="3" value="&lt;span style=&quot;font-weight: 700&quot;&gt;&amp;lt;&amp;lt;artifact&amp;gt;&amp;gt;&lt;/span&gt;&lt;br style=&quot;font-weight: 700&quot;&gt;&lt;span style=&quot;font-weight: 700&quot;&gt;Docker&lt;/span&gt;" style="verticalAlign=top;align=center;shape=cube;size=10;direction=south;html=1;boundedLbl=1;spacingLeft=5;" vertex="1" parent="2"><mxGeometry width="280" height="420" relative="1" as="geometry"><mxPoint x="10" y="80" as="offset"/></mxGeometry></mxCell><mxCell id="4" value="&lt;span style=&quot;font-weight: 700&quot;&gt;&amp;lt;&amp;lt;dockerfile&amp;gt;&amp;gt;&lt;/span&gt;&lt;br style=&quot;font-weight: 700&quot;&gt;&lt;b&gt;Frontend&lt;/b&gt;" style="verticalAlign=top;align=center;shape=cube;size=10;direction=south;html=1;boundedLbl=1;spacingLeft=5;" vertex="1" parent="2"><mxGeometry x="20" y="265" width="250" height="110" as="geometry"/></mxCell><mxCell id="5" value="&lt;span style=&quot;font-weight: 700&quot;&gt;&amp;lt;&amp;lt;dockerfile&amp;gt;&amp;gt;&lt;/span&gt;&lt;br style=&quot;font-weight: 700&quot;&gt;&lt;b&gt;Database&lt;/b&gt;" style="verticalAlign=top;align=center;shape=cube;size=10;direction=south;html=1;boundedLbl=1;spacingLeft=5;" vertex="1" parent="2"><mxGeometry x="20" y="390" width="250" height="110" as="geometry"/></mxCell><mxCell id="6" value="" style="rounded=0;whiteSpace=wrap;html=1;" vertex="1" parent="2"><mxGeometry x="60" y="320" width="150" height="50" as="geometry"/></mxCell><mxCell id="7" value="&amp;lt;&amp;lt;artifact&amp;gt;&amp;gt;&lt;br&gt;Svelte" style="text;html=1;strokeColor=none;fillColor=none;align=center;verticalAlign=middle;whiteSpace=wrap;rounded=0;fontStyle=1" vertex="1" parent="2"><mxGeometry x="105" y="330" width="60" height="30" as="geometry"/></mxCell><mxCell id="8" value="" style="rounded=0;whiteSpace=wrap;html=1;" vertex="1" parent="2"><mxGeometry x="60" y="440" width="150" height="50" as="geometry"/></mxCell><mxCell id="9" value="&amp;lt;&amp;lt;artifact&amp;gt;&amp;gt;&lt;br&gt;Postgres&amp;nbsp;" style="text;html=1;strokeColor=none;fillColor=none;align=center;verticalAlign=middle;whiteSpace=wrap;rounded=0;fontStyle=1" vertex="1" parent="2"><mxGeometry x="105" y="450" width="60" height="30" as="geometry"/></mxCell><mxCell id="10" value="&lt;span style=&quot;font-weight: 700&quot;&gt;&amp;lt;&amp;lt;dockerfile&amp;gt;&amp;gt;&lt;/span&gt;&lt;br style=&quot;font-weight: 700&quot;&gt;&lt;b&gt;Backend&lt;/b&gt;" style="verticalAlign=top;align=center;shape=cube;size=10;direction=south;html=1;boundedLbl=1;spacingLeft=5;" vertex="1" parent="1"><mxGeometry x="460" width="250" height="110" as="geometry"/></mxCell><mxCell id="11" value="&lt;span style=&quot;font-weight: 700&quot;&gt;&amp;lt;&amp;lt;device&amp;gt;&amp;gt;&lt;/span&gt;&lt;br style=&quot;font-weight: 700&quot;&gt;&lt;b&gt;Computer&lt;/b&gt;" style="verticalAlign=top;align=center;shape=cube;size=10;direction=south;fontStyle=0;html=1;boundedLbl=1;spacingLeft=5;" vertex="1" parent="1"><mxGeometry x="40" y="30" width="280" height="180" as="geometry"/></mxCell><mxCell id="12" value="Protocol&lt;br&gt;HTTP" style="text;html=1;align=center;verticalAlign=middle;resizable=0;points=[];autosize=1;strokeColor=none;fillColor=none;" vertex="1" parent="1"><mxGeometry x="350" y="90" width="60" height="30" as="geometry"/></mxCell><mxCell id="13" value="" style="endArrow=none;html=1;rounded=0;exitX=0;exitY=0;exitDx=95;exitDy=0;exitPerimeter=0;entryX=0;entryY=0;entryDx=265;entryDy=310;entryPerimeter=0;" edge="1" parent="1" source="11" target="2"><mxGeometry width="50" height="50" relative="1" as="geometry"><mxPoint x="680" y="140" as="sourcePoint"/><mxPoint x="730" y="90" as="targetPoint"/></mxGeometry></mxCell><mxCell id="14" value="" style="rounded=0;whiteSpace=wrap;html=1;" vertex="1" parent="1"><mxGeometry x="70" y="110" width="210" height="70" as="geometry"/></mxCell><mxCell id="15" value="&amp;lt;&amp;lt;artifact&amp;gt;&amp;gt;&lt;br&gt;Website&amp;nbsp;" style="text;html=1;strokeColor=none;fillColor=none;align=center;verticalAlign=middle;whiteSpace=wrap;rounded=0;fontStyle=1" vertex="1" parent="1"><mxGeometry x="140" y="120" width="60" height="30" as="geometry"/></mxCell><mxCell id="16" value="" style="rounded=0;whiteSpace=wrap;html=1;" vertex="1" parent="1"><mxGeometry x="500" y="50" width="150" height="50" as="geometry"/></mxCell><mxCell id="17" value="&amp;lt;&amp;lt;artifact&amp;gt;&amp;gt;&lt;br&gt;Node js" style="text;html=1;strokeColor=none;fillColor=none;align=center;verticalAlign=middle;whiteSpace=wrap;rounded=0;fontStyle=1" vertex="1" parent="1"><mxGeometry x="545" y="60" width="60" height="30" as="geometry"/></mxCell></root></mxGraphModel></diagram></mxfile>